<?xml version="1.0" encoding="utf-8"?>
<!-- Generator: Adobe Illustrator 19.2.1, SVG Export Plug-In . SVG Version: 6.00 Build 0)  -->
<svg version="1.1" id="layer" xmlns="http://www.w3.org/2000/svg" xmlns:xlink="http://www.w3.org/1999/xlink" x="0px" y="0px"
	 viewBox="0 0 652 652" style="enable-background:new 0 0 652 652;" xml:space="preserve">
<style type="text/css">
	.st0{fill:#FFFFFF;}
	.st1{fill:#0047BA;}
	.st2{fill:none;stroke:#E4087E;stroke-width:0.7909;stroke-miterlimit:10;}
</style>
<g>
	<rect x="71.9" y="71.1" class="st0" width="500" height="500"/>
	<g>
		<path class="st1" d="M412.7,325.5c-4,17.1-12.3,31.6-24.2,43.5h64.6C465.4,301.8,421,230.2,349,214.8
			C363.5,218.7,427.2,248.6,412.7,325.5"/>
		<path class="st1" d="M188.6,104.5V369h28.1c17.1,0,21.1,0.4,30.3-1.3c40.4-5.7,77.3-38.7,81.3-67.7c6.2-34.3-12.7-64.6-48.8-72.1
			c-0.4,0-1.3-0.4-2.2-0.4c-1.3,0-18.9,0-32.1-3.5c0,0-7.9,6.2-4.8,17.6c0,0-18-18.9-6.6-43.9c0,0,5.7-11.9,24.2-24.2l0.4-0.4
			c4.8-6.2,17.1-16.7,34.7-24.6c8.8-4,24.2-9.7,41.3-11.4c78.2-7.5,120.4,52.7,120.4,52.7v-85.2H188.6z"/>
		<path class="st1" d="M381.5,168.6c-37.3-4.8-69,4.8-94,22c0,0,7.5-4.4,18.5-8.3c1.8,7,7.9,13.2,15.8,14.9c11,2.2,21.5-4,23.7-14.5
			c0.4-2.6,0.4-5.7-0.4-8.3c71.6-2.2,109.8,52.7,109.8,52.7v-23.7C444.3,192.8,414.9,172.2,381.5,168.6"/>
	</g>
	<g>
		<path class="st1" d="M208.4,483.7h10.5l19.8,52.7h-11.9l-4.4-12.3H204l-4.4,12.3h-11L208.4,483.7z M219.8,515.3l-6.6-18.9
			l-6.2,18.9H219.8z"/>
		<path class="st1" d="M245.3,483.7h19.8c7.9,0,14.5,2.2,18.9,6.6s6.6,11,6.6,19.3c0,4.4-0.4,8.3-1.8,11.4c-1.3,3.5-3.1,6.2-5.3,8.3
			s-5.3,4-8.8,5.3c-3.5,1.3-7,1.8-11.4,1.8h-18C245.3,536.4,245.3,483.7,245.3,483.7z M263.3,527.2c2.6,0,5.3-0.4,7.5-1.3
			c2.2-0.9,3.5-2.2,4.8-3.5c1.3-1.3,2.2-3.5,2.6-5.3c0.4-2.2,0.9-4.4,0.9-7c0-2.6-0.4-4.8-0.9-7c-0.4-2.2-1.3-4-2.6-5.3
			c-1.3-1.3-2.6-2.6-4.4-3.5c-1.8-0.9-4-1.3-6.6-1.3h-8.8v33.8h7.5V527.2z"/>
		<polygon class="st1" points="299.3,483.7 309,483.7 330.5,518.4 330.5,483.7 341.5,483.7 341.5,536.4 331.4,536.4 309.9,502.1 
			309.9,536.4 299.3,536.4 		"/>
		<path class="st1" d="M375.8,537.7c-4,0-7.5-0.4-10.5-1.8c-3.1-1.3-5.7-3.1-7.9-5.7c-2.2-2.2-4-5.3-4.8-8.8
			c-1.3-3.5-1.8-7-1.8-11.4c0-4.4,0.4-7.9,1.8-11.4c1.3-3.5,2.6-6.2,4.8-8.8c2.2-2.2,4.8-4.4,7.9-5.7c3.1-1.3,6.6-1.8,10.5-1.8
			s7.5,0.4,10.5,1.8c3.1,1.3,5.7,3.1,7.9,5.7c2.2,2.2,4,5.3,4.8,8.8c1.3,3.5,1.8,7,1.8,11.4c0,4.4-0.4,7.9-1.8,11.4
			c-1.3,3.5-2.6,6.2-4.8,8.8c-2.2,2.2-4.8,4.4-7.9,5.7C383.2,537.3,379.7,537.7,375.8,537.7 M375.8,528.5c4.8,0,7.9-1.8,10.5-4.8
			c2.2-3.1,3.5-7.5,3.5-13.6c0-5.7-1.3-10.1-3.5-13.6c-2.6-3.1-6.2-4.4-10.5-4.4c-4.8,0-7.9,1.8-10.5,4.8c-2.2,3.1-3.5,7.5-3.5,13.6
			c0,5.7,1.3,10.5,3.5,13.6C367.4,526.7,370.9,528.5,375.8,528.5"/>
		<path class="st1" d="M454.4,518.4c-0.4,2.6-0.9,5.3-1.8,7.9c-0.9,2.2-2.6,4.4-4.4,6.2c-1.8,1.8-4,3.1-6.6,4
			c-2.6,0.9-5.7,1.3-9.2,1.3c-4,0-7.5-0.9-10.5-2.2c-3.1-1.3-5.7-3.1-7.5-5.7c-2.2-2.2-3.5-5.3-4.4-8.8c-0.9-3.5-1.8-7-1.8-11.4
			s0.4-7.9,1.8-11.4c1.3-3.5,2.6-6.2,4.8-8.8c2.2-2.2,4.8-4.4,7.5-5.7c3.1-1.3,6.6-1.8,10.1-1.8c3.5,0,6.2,0.4,8.8,1.3
			c2.6,0.9,4.4,2.2,6.2,3.5c1.8,1.8,3.1,3.5,4,5.7c0.9,2.2,1.8,4.8,2.2,7.5l-11,1.3c-0.4-3.1-1.8-5.7-3.1-7.5
			c-1.8-0.9-4-1.8-7.5-1.8c-4.4,0-7.5,1.8-9.7,4.8s-3.1,7.5-3.1,13.6c0,5.7,1.3,10.5,3.5,13.6c2.2,3.1,5.3,4.8,9.2,4.8
			c3.5,0,5.7-0.9,7.5-2.6c1.8-1.8,2.6-4.4,3.1-7.5h11.9V518.4z"/>
		<path class="st1" d="M245.3,450.3v-47h11v56.2h-46.1c-7.5,0-12.7-1.8-16.3-4.8c-3.5-3.1-5.3-7.9-5.3-14.5c0-3.5,0.9-6.6,2.2-9.7
			c1.8-2.2,4-4.4,6.6-5.7c3.1-1.8,6.2-2.6,10.1-2.6l1.3,9.2c-3.5,0.4-6.2,1.3-7.5,2.6c-1.3,1.3-2.2,3.5-2.2,6.6
			c0,3.5,0.9,5.7,2.6,7.5c1.8,1.3,4.4,2.2,7.9,2.2C209.7,450.3,245.3,450.3,245.3,450.3z M234.7,426.1v3.5h-14.1v-3.5h1.8v-2.2
			c0-1.8,0.4-3.5,1.8-4.4c0.9-0.9,2.6-1.3,4.4-1.3s3.5,0.4,4.4,1.3c0.9,0.9,1.3,2.2,1.8,4l-3.5,0.4c0-0.9-0.4-1.3-0.4-1.8
			c-0.4-0.4-0.9-0.4-1.8-0.4c-1.8,0-2.6,0.9-2.6,2.6v1.8H234.7z"/>
		<path class="st1" d="M360.8,420.4v29.4h-60.2v-11.4c0-6.2-1.3-10.5-4.4-13.6c-3.1-3.1-7.5-4.4-13.2-4.4s-10.1,1.8-13.2,4.8
			c-3.1,3.1-4.8,7.5-4.8,13.2c0,6.6,2.2,12.3,6.2,15.8c4,3.5,10.1,5.3,17.6,5.3h1.3v1.3c0,4.4-0.4,6.6-1.8,7.9l5.3,8.3
			c0.9-0.4,1.8-1.3,2.6-1.8c3.1-3.1,4.4-9.7,4.4-15.8h71.2v-39.1H360.8z M290.1,450.3h-3.5c-7.5,0-11-4.4-11-11.4
			c0-3.1,0.4-5.3,1.8-6.6c1.3-1.8,3.1-2.2,5.7-2.2c1.8,0,3.1,0.4,4.4,0.9c0.9,0.4,1.8,1.8,2.2,3.1c0.4,1.8,0.9,4.8,0.9,7.9v8.3
			H290.1z"/>
		<rect x="360.8" y="404.6" class="st1" width="10.5" height="10.5"/>
		<path class="st1" d="M421.9,450.3v-5.7c0-4.8-0.9-8.3-2.6-10.5c-1.8-2.2-4.4-3.5-8.3-3.5c-2.6,0-5.3,0.4-7.9,1.3l-2.6-9.2
			c3.5-1.3,7.5-1.8,11.4-1.8c6.6,0,11.9,1.8,15.4,5.7c3.5,4,5.3,9.7,5.3,17.1v16.3h-52.7v-9.7H421.9z"/>
		<path class="st1" d="M454.4,400.6v3.5h-14.1v-3.5h1.8v-2.2c0-1.8,0.4-3.5,1.8-4.4c0.9-0.9,2.6-1.8,4.4-1.8s3.5,0.4,4.4,1.3
			c0.9,0.9,1.3,2.2,1.8,4l-3.5,0.4c0-0.9-0.4-1.3-0.4-1.8c-0.4-0.4-0.9-0.4-1.8-0.4c-1.8,0-2.6,0.9-2.6,2.6v2.2H454.4z"/>
		<rect x="441.7" y="408.5" class="st1" width="10.5" height="51"/>
	</g>
	<path class="st2" d="M245.3,370.3"/>
</g>
</svg>
